<svg xmlns="http://www.w3.org/2000/svg" shape-rendering="geometricPrecision" width="473" height="473" viewBox="0 0 473 473" role="img" aria-labelledby="title">
  <title>MAlabs dark logo</title>
  <path d="
M 21.651 349.641
C 24.774 349.81 27.931 349.699 31.063 349.736
C 32.191 349.749 33.984 349.371 34.97 349.883
C 36.356 352.369 38.188 354.634 39.703 357.048
C 43.326 362.824 47.043 368.572 50.964 374.151
C 52.462 376.283 53.926 378.465 55.3 380.679
C 55.814 381.508 56.286 382.733 56.963 383.403
C 63.783 372.058 70.963 360.666 78.466 349.754
C 82.761 349.094 87.786 349.731 92.143 349.785
C 92.598 352.019 92.173 354.711 92.171 356.997
C 92.168 361.997 92.157 366.997 92.148 371.998
C 92.124 386.196 92.541 400.426 92.342 414.618
C 88.054 414.897 83.62 413.964 79.322 414.545
C 78.865 413.332 79.114 411.786 79.116 410.499
C 79.121 407.667 79.141 404.834 79.149 402.002
C 79.176 391.949 79.726 381.736 79.102 371.703
C 77.306 373.76 75.962 376.313 74.497 378.616
C 71.663 383.068 68.812 387.509 65.98 391.962
C 64.944 393.589 63.838 395.189 62.852 396.847
C 62.299 397.777 61.824 399.21 61.017 399.915
C 58.202 399.99 55.381 399.883 52.567 399.945
C 50.908 398.658 49.768 395.845 48.628 394.076
C 45.767 389.635 42.967 385.151 40.089 380.72
C 38.812 378.756 37.596 376.762 36.361 374.775
C 35.954 374.12 35.617 373.427 35.219 372.765
C 35.07 372.518 34.985 371.825 34.775 372.022
C 34.488 372.293 34.71 374.042 34.719 374.528
C 34.761 376.847 34.661 379.176 34.657 381.497
C 34.643 389.497 34.727 397.498 34.682 405.499
C 34.67 407.664 34.629 409.834 34.689 411.999
C 34.706 412.613 34.504 414.054 34.822 414.547
C 30.872 413.785 25.924 414.194 21.917 414.473
C 21.474 411.819 21.749 408.961 21.697 406.274
C 21.582 400.351 21.604 394.427 21.591 388.503
C 21.572 379.836 21.579 371.17 21.596 362.503
C 21.604 358.238 21.34 353.893 21.651 349.641 Z"
opacity="1" fill="#111827" fill-rule="evenodd" />
<path d="
M 108.426 414.112
C 112.532 403.807 117.437 393.803 121.909 383.654
C 126.914 372.294 131.768 360.735 137.335 349.645
C 141.598 349.676 145.899 349.777 150.159 349.567
C 151.976 355.724 155.587 361.708 158.195 367.576
C 163.124 378.667 168.109 389.728 173 400.833
C 175.003 405.382 177.27 409.891 179.027 414.536
C 174.587 415.267 169.551 414.07 165.005 414.472
C 164.094 413.78 163.739 411.909 163.277 410.853
C 161.919 407.75 160.614 404.61 159.4 401.451
C 157.477 400.702 154.105 401.391 152.004 401.396
C 146.004 401.41 139.916 401.804 133.936 401.632
C 134.484 399.286 135.648 396.97 136.5 394.714
C 137.085 393.165 137.389 391.444 138.191 389.995
C 143.533 390.169 148.976 389.823 154.298 390.189
C 153.906 388.544 152.759 386.969 152.125 385.399
C 150.578 381.567 149.016 377.752 147.391 373.952
C 146.088 370.903 145.213 367.289 143.243 364.621
C 142.96 366.428 142.035 368.251 141.32 369.949
C 139.751 373.672 138.074 377.339 136.445 381.036
C 131.534 392.176 126.998 403.515 121.785 414.509
C 118.862 414.691 115.795 414.48 112.854 414.461
C 111.305 414.451 109.683 414.737 108.146 414.572
C 108.24 414.419 108.333 414.266 108.426 414.112 Z"
opacity="1" fill="#111827" fill-rule="evenodd" />
<path d="
M 132.953 143.103
C 133.747 138.212 134.1 133.296 135.38 128.48
C 139.468 113.092 147.138 99.113 158.249 87.662
C 195.198 49.584 264.197 46.935 302.086 85.174
C 317.131 100.358 326.506 122.07 326.358 143.544
C 326.328 147.892 325.375 151.983 323.97 156.079
C 322.961 159.018 321.501 161.787 322.051 164.991
C 322.694 168.728 325.082 171.963 326.983 175.151
C 330.828 181.598 334.781 188.06 338.923 194.321
C 340.956 197.395 345.687 202.727 343.32 206.684
C 339.826 212.526 330.546 210.931 326.156 215.52
C 324.061 219.666 329.517 224.341 328.667 228.407
C 328.234 230.477 325.995 231.399 324.333 232.271
C 323.956 232.469 321.741 233.496 321.908 233.724
C 322.731 234.365 323.5 235.011 324.194 235.797
C 324.75 236.427 325.224 237.148 325.546 237.925
C 327.771 243.283 320.161 244.576 319.421 249.019
C 318.313 255.682 322.321 261.996 320.085 268.738
C 317.671 276.015 310.379 279.313 303.129 279.138
C 292.004 278.869 278.699 273.733 269.415 282.395
C 266.391 285.22 264.557 289.253 263.248 293.111
C 260.854 300.168 259.601 307.501 261.104 314.921
C 261.635 317.545 262.445 320.158 263.617 322.566
C 264.078 323.515 265.282 324.88 265.334 325.925
C 264.764 326.427 263.757 326.734 263.023 326.902
C 261.919 326.059 261.268 324.248 260.767 322.993
C 259.291 319.302 258.508 315.42 258.162 311.471
C 257.486 303.742 259.102 296.069 262.209 288.98
C 263.677 285.633 265.643 282.127 268.525 279.789
C 272.465 276.593 277.51 275.36 282.457 274.884
C 282.307 273.657 282.061 271.968 281.554 270.843
C 280.574 270.19 278.714 270.381 277.545 270.19
C 274.323 269.662 271.106 269.124 267.913 268.446
C 258.615 266.473 249.473 263.663 240.875 259.595
C 237.965 258.218 234.25 256.976 231.849 254.782
C 230.704 254.781 229.565 255.908 228.658 256.53
C 226.497 258.012 223.584 258.855 221.75 260.752
C 221.077 263.488 221.395 266.792 221.236 269.607
C 220.881 275.886 220.6 282.2 220.099 288.469
C 219.771 292.584 219.516 296.707 219.155 300.82
C 218.97 302.934 218.28 305.549 218.655 307.646
C 217.857 307.332 216.934 307.541 216.132 307.209
C 215.919 305.058 216.544 302.839 216.747 300.696
C 217.124 296.696 217.456 292.681 217.735 288.674
C 218.205 281.939 218.473 275.181 219.052 268.456
C 219.312 265.434 219.044 262.344 219.532 259.344
C 220.282 258.319 221.473 257.877 222.539 257.244
C 224.515 256.072 226.519 254.961 228.48 253.761
C 229.446 253.169 230.73 252.136 231.938 252.279
C 233.747 252.492 235.85 254.586 237.513 255.402
C 241.795 257.504 246.189 259.519 250.672 261.152
C 257.697 263.712 265.097 265.728 272.464 267.023
C 276.131 267.667 279.876 267.808 283.527 268.45
C 284.027 270.367 284.204 273.134 285.278 274.788
C 288.194 275.385 291.282 275.523 294.246 275.801
C 302.564 276.58 313.305 278.099 317.422 268.661
C 320.341 261.97 315.826 255.306 317.076 248.533
C 317.463 246.438 318.564 244.522 320.115 243.075
C 321.1 242.156 322.503 241.451 323.277 240.342
C 323.552 238.126 321.47 236.392 319.893 235.209
C 319.153 234.654 317.965 233.947 317.797 233.01
C 319.708 230.369 324.111 230.658 326.152 227.917
C 326.136 223.443 321.418 218.758 323.929 214.146
C 325.904 210.52 332.289 209.549 335.93 208.33
C 337.478 207.812 339.921 207.034 340.76 205.524
C 341.724 201.265 337.379 196.605 335.202 193.334
C 331.801 188.224 328.684 182.898 325.392 177.715
C 323.093 174.095 320.332 170.293 319.542 165.99
C 318.895 162.47 320.433 158.59 321.54 155.307
C 322.646 152.027 323.523 148.651 323.783 145.187
C 324.021 142.027 323.587 138.876 323.296 135.741
C 322.31 125.136 319.002 114.551 313.917 105.183
C 284.598 51.163 202.477 46.254 160.963 88.458
C 158.863 90.639 156.811 92.897 154.829 95.186
C 148.008 103.64 142.891 113.156 139.433 123.435
C 137.407 128.717 136.354 134.434 135.654 140.026
C 132.802 162.786 138.966 185.484 151.84 204.355
C 159.168 215.096 169.961 223.574 175.849 235.248
C 183.493 250.404 182.739 268.062 176.215 283.459
C 174.82 286.752 172.961 289.787 170.936 292.728
C 169.915 294.211 168.943 295.945 167.584 297.134
C 166.793 297.066 166.15 296.439 165.489 296.042
C 166.023 294.487 167.384 293.278 168.323 291.952
C 170.199 289.305 171.845 286.522 173.279 283.614
C 178.424 273.184 180.493 260.078 178.028 248.645
C 174.359 231.63 160.894 221.005 151.131 207.548
C 137.725 189.069 130.61 165.979 132.953 143.103 Z"
opacity="1" fill="#111827" fill-rule="evenodd" />
<path d="
M 141.967 148.607
C 142.705 141.973 143.322 135.611 145.173 129.152
C 152.118 104.912 170.248 85.669 193.033 75.407
C 200.688 71.959 208.61 70.822 216.722 69.144
C 217.118 68.619 217.461 68.067 217.84 67.531
C 221.302 63.977 224.563 70.046 221.297 72.616
C 219.321 73.59 218.717 71.572 217.016 71.383
C 214.433 71.094 211.19 72.273 208.719 72.894
C 196.38 75.996 184.683 81.247 174.705 89.303
C 169.53 93.795 164.303 98.268 160.306 103.901
C 155.3 111.441 150.739 119.069 148.05 127.789
C 141.002 150.635 144.131 176.2 157.216 196.384
C 161.224 202.567 165.863 208.414 171.277 213.441
C 174.254 216.205 177.662 218.413 180.652 221.114
C 180.743 223.468 180.238 225.637 181.002 227.997
C 181.762 230.345 184.145 232.112 185.203 234.365
C 186.315 236.736 186.889 239.824 188.719 241.776
C 190.362 243.529 193.099 243.623 194.822 245.11
C 193.96 247.96 187.964 245.416 186.803 243.861
C 184.833 241.222 184.22 237.923 182.716 235.047
C 181.472 232.667 179.592 230.939 178.779 228.292
C 178.165 226.294 178.741 224.267 178.282 222.339
C 175.873 221.218 173.787 218.954 171.864 217.165
C 168.513 214.045 165.399 210.92 162.465 207.395
C 152.942 195.951 146.479 182.719 143.595 168.1
C 142.359 161.836 141.428 155.006 141.967 148.607 Z"
opacity="1" fill="#111827" fill-rule="evenodd" />
<path d="
M 152.605 157.279
C 153.703 156.779 154.572 156.771 155.755 156.858
C 156.442 157.704 155.902 158.876 156.076 159.855
C 156.461 162.014 156.452 164.263 156.974 166.403
C 157.185 167.272 157.884 167.967 157.9 168.875
C 157.169 169.377 156.221 169.512 155.372 169.281
C 154.065 167.092 154.245 163.552 153.713 161.064
C 153.421 159.701 152.706 158.719 152.605 157.279 Z"
opacity="1" fill="#111827" fill-rule="evenodd" />
<path d="
M 153.465 144.114
C 154.362 139.549 154.989 134.989 156.328 130.505
C 160.424 116.789 170.13 104.706 181.018 95.692
C 182.295 95.635 183.158 96.288 182.795 97.561
C 180.85 99.782 178.19 101.476 176.09 103.592
C 169.946 109.788 164.3 116.75 160.884 124.857
C 157.807 131.101 155.947 138.727 155.683 145.684
C 159.817 146.37 164.082 146.272 168.193 147.13
C 168.237 150.622 168.008 154.096 168.381 157.582
C 169.232 165.543 171.763 173.144 175.676 180.111
C 176.981 182.436 178.385 184.689 179.986 186.825
C 180.501 187.512 181.141 188.778 181.918 189.116
C 185.499 188.053 190.462 188.668 191.133 193.278
C 191.373 194.931 190.59 196.472 190.127 198.007
C 191.235 200.834 195.026 202.898 197.324 204.697
C 198.121 205.321 198.844 206.234 199.714 206.742
C 201.222 207.62 203.026 207.058 204.573 208.266
C 208.061 210.99 205.644 215.071 202.986 217.129
C 203.091 218.908 203.847 220.824 204.204 222.595
C 204.383 223.48 204.17 224.549 204.518 225.378
C 206.345 229.738 210.902 233.78 214.167 237.08
C 215.937 238.87 217.796 240.633 219.724 242.252
C 220.39 242.812 221.762 243.573 221.958 244.437
C 221.438 245.598 219.98 246.417 218.969 247.128
C 216.726 248.707 214.02 249.946 212.064 251.876
C 211.347 256.292 211.49 261.001 211.13 265.471
C 210.999 267.093 210.076 269.836 210.523 271.335
C 211.057 271.907 212.013 272.393 212.294 273.161
C 214.077 278.041 204.15 277.84 206.499 273.03
C 206.856 272.299 207.579 271.833 208.122 271.253
C 208.878 269.197 208.759 266.664 208.943 264.501
C 209.169 261.852 209.494 259.198 209.666 256.547
C 209.776 254.847 209.423 251.953 210.283 250.446
C 210.83 249.488 212.045 248.813 212.948 248.242
C 214.848 247.042 216.825 245.602 218.968 244.915
C 218.344 244.061 217.024 243.229 216.222 242.458
C 214.329 240.64 212.438 238.821 210.634 236.914
C 208.833 235.011 207.197 232.98 205.635 230.88
C 204.852 229.828 204.133 228.188 203.065 227.41
C 202.522 227.014 201.821 226.947 201.308 226.54
C 201.912 223.693 202.851 220.563 201.72 217.688
C 199.771 216.861 196.464 215.166 196.553 212.643
C 196.611 211.001 197.888 209.702 197.992 208.179
C 194.573 206.453 190.589 202.321 188.433 199.193
C 187.155 199.143 185.967 199.81 184.621 199.646
C 181.464 199.263 179.715 196.562 179.898 193.496
C 179.96 192.452 180.43 191.517 180.533 190.498
C 178.734 187.828 176.289 185.728 174.595 182.913
C 168.485 172.76 165.318 160.625 165.982 148.789
C 161.946 148.738 157.197 148.67 153.342 147.42
C 153.15 146.317 153.313 145.215 153.465 144.114 Z
M 181.977 193.618
C 181.566 198.05 188.101 198.781 188.811 194.461
C 189.444 190.613 182.363 189.46 181.977 193.618 Z"
opacity="1" fill="#111827" fill-rule="evenodd" />
<path d="
M 156.427 179.068
C 157.574 176.134 162.179 175.112 163.474 178.613
C 164.121 180.361 163.077 182.111 162.18 183.545
C 166.234 192.458 173.344 200.763 180.654 207.152
C 182.567 208.825 184.513 210.508 186.595 211.97
C 188.097 213.025 189.815 213.89 191.099 215.216
C 191.957 220.123 190.626 225.242 193.152 229.859
C 194.467 232.263 196.194 234.436 198.254 236.244
C 199.367 237.221 201.645 238.984 201.967 240.499
C 202.225 241.707 201.814 243.1 201.767 244.32
C 201.653 247.327 201.344 250.324 201.239 253.335
C 200.924 262.369 199.78 271.361 198.221 280.267
C 197.446 284.695 196.074 289.148 195.535 293.597
C 195.395 294.755 196.984 295.57 196.888 296.974
C 196.323 299.285 192.721 300.499 191.095 298.479
C 190.405 297.622 190.494 296.355 190.704 295.349
C 191.291 294.326 192.364 294.065 193.152 293.268
C 194.349 290.273 194.624 286.611 195.253 283.447
C 197.121 274.051 198.151 264.539 198.894 255
C 199.178 251.353 199.834 247.477 199.5 243.824
C 199.409 242.827 199.972 241.796 199.443 240.896
C 197.766 238.741 195.428 237.114 193.664 235
C 192.087 233.11 191.016 230.636 190.245 228.318
C 189.475 226.001 189.194 223.756 189.138 221.326
C 189.108 220.011 189.413 218.1 188.827 216.91
C 181.711 211.019 174.288 205.444 168.684 197.987
C 165.41 193.628 163.312 188.894 160.599 184.235
C 158.18 183.088 155.911 182.297 156.427 179.068 Z"
opacity="1" fill="#111827" fill-rule="evenodd" />
<path d="
M 167.38 127.553
C 168.321 124.927 170.532 123.284 173.359 124.201
C 174.502 123.333 175.082 121.203 175.968 120.026
C 178.238 117.013 180.844 114.242 183.557 111.627
C 192.542 102.968 204.87 97.193 217.146 95.201
C 225.248 93.887 232.931 94.393 241.014 95.353
C 243.674 95.669 246.164 92.694 247.989 96.136
C 249.09 98.212 247.319 100.551 245.023 100.338
C 243.482 100.195 242.894 98.778 242.118 97.653
C 234.745 96.741 227.465 96.07 220.051 97.046
C 201.695 99.461 185.288 109.916 174.841 125.055
C 175.491 125.816 176.006 126.626 176.208 127.622
C 177.337 133.196 168.331 135.407 167.287 129.605
C 167.162 128.914 167.226 128.23 167.38 127.553 Z"
opacity="1" fill="#111827" fill-rule="evenodd" />
<path d="
M 176.963 146.604
C 177.723 142.06 180.927 140.349 185.18 140.067
C 186.059 139.027 186.284 137.242 186.855 135.997
C 187.974 133.554 189.425 131.214 190.947 129.006
C 193.662 125.067 197.68 122.67 200.704 119.111
C 201.047 117.92 200.449 116.71 201.004 115.501
C 202.877 111.418 207.635 110.855 210.622 114.02
C 211.621 114.252 213.033 113.21 214.054 112.996
C 217.298 112.315 220.544 111.424 223.867 111.204
C 231.13 110.722 238.743 111.837 245.584 114.327
C 247.401 114.988 248.935 116.046 250.671 116.813
C 251.906 113.752 253.893 110.84 255.719 108.103
C 256.867 106.383 257.731 104.404 259.011 102.79
C 260.474 102.877 262.466 104.805 263.674 105.65
C 265.597 106.995 267.672 108.189 269.493 109.675
C 271.267 111.123 272.78 113.092 274.658 114.367
C 276.2 114.075 277.243 113.461 278.892 113.947
C 283.236 115.23 283.081 120.088 280.977 123.146
C 281.188 124.623 282.464 126.403 283.085 127.798
C 284.667 131.356 285.873 135.07 287.471 138.616
C 288.007 139.804 290.091 143.053 289.24 144.253
C 286.761 145.88 281.823 148.259 280.647 151.045
C 283.461 153.527 285.734 157.52 289.144 159.266
C 293.946 159.82 299.096 159.09 303.945 159.167
C 304.114 159.832 304.252 160.709 303.746 161.26
C 300.044 161.387 296.344 161.601 292.634 161.734
C 291.325 161.782 288.959 162.293 287.773 161.619
C 285.369 160.252 283.423 157.13 281.494 155.166
C 280.266 153.917 277.456 152.058 277.027 150.395
C 279.201 148.788 281.204 146.956 283.48 145.456
C 284.521 144.771 286.518 144.023 287.311 143.164
C 284.465 138.566 282.846 132.752 280.871 127.724
C 280.444 126.637 280.226 125.312 279.681 124.297
C 278.326 124.109 276.993 124.556 275.602 124.212
C 273.035 123.579 271.306 120.511 271.768 117.935
C 271.942 116.969 273.185 116.569 273.272 115.727
C 269.474 112.183 264.614 107.79 259.87 105.641
C 257.212 110.16 253.681 114.46 251.567 119.258
C 251.317 119.511 249.448 118.333 249.067 118.153
C 246.602 116.985 244.179 116.054 241.559 115.286
C 234.185 113.125 225.731 112.327 218.199 114.273
C 216.509 114.71 212.727 114.982 211.616 116.324
C 211.687 119.926 209.234 123.324 205.171 122.57
C 203.865 122.328 203.165 121.437 202.073 120.875
C 194.658 125.147 190.55 133.394 186.85 140.651
C 187.211 141.709 189.091 142.599 189.713 143.722
C 192.35 148.481 188.571 152.449 184.346 153.925
C 184.039 154.627 184.278 155.778 184.328 156.538
C 184.504 159.177 185.048 161.728 185.717 164.279
C 188.466 174.767 195.454 184.285 203.341 191.551
C 205.446 193.49 207.737 195.204 209.933 197.036
C 210.558 197.558 211.575 198.778 212.387 198.863
C 213.382 198.281 214.279 197.505 215.433 197.241
C 219.663 196.272 223.465 199.56 223.615 203.773
C 223.699 206.131 222.346 208.207 220.434 209.483
C 219.585 210.05 218.385 210.42 217.709 211.203
C 216.852 212.197 216.645 213.885 216.436 215.137
C 215.847 218.657 217.322 221.938 219.231 224.825
C 222.6 229.922 226.986 234.339 231.974 237.868
C 233.703 239.091 235.506 241.284 237.484 242.02
C 240.574 239.94 242.591 236.064 245.623 233.8
C 247.534 234.004 250.032 236.233 251.74 237.168
C 255.445 239.198 259.413 240.793 263.352 242.299
C 265.286 243.038 267.451 244.069 269.541 244.197
C 271.576 244.321 274.578 240.762 276.077 239.518
C 281.971 234.629 286.504 227.72 288.755 220.414
C 289.367 218.426 290.812 215.839 290.664 213.745
C 290.151 212.947 289.407 212.436 289.319 211.419
C 288.913 206.721 295.885 207.416 295.314 211.934
C 294.871 213.185 293.156 213.418 292.611 214.623
C 292.171 215.595 292.145 216.832 291.865 217.868
C 291.231 220.208 290.393 222.521 289.504 224.775
C 287.152 230.734 283.036 236.033 278.448 240.425
C 276.695 242.102 274.819 243.713 272.884 245.176
C 272.09 245.777 271.149 246.786 270.093 246.86
C 268.054 247.004 265.817 245.631 263.972 244.931
C 257.684 242.544 251.897 239.602 245.878 236.672
C 244.007 238.452 242.291 240.414 240.521 242.294
C 239.852 243.005 238.952 244.379 238.059 244.752
C 235.509 243.467 233.189 241.548 230.906 239.836
C 224.13 234.755 215.73 227.559 214.209 218.682
C 213.656 215.454 215.475 213.244 215.763 210.253
C 213.327 209.489 210.55 207.362 210.386 204.594
C 210.304 203.207 210.953 201.797 211.337 200.488
C 210.746 199.612 208.775 198.755 207.858 198.11
C 205.424 196.397 203.175 194.534 201.039 192.46
C 191.037 182.75 181.159 168.434 182.173 153.751
C 179.27 151.954 176.642 150.645 176.963 146.604 Z
M 179.443 145.583
C 178.948 147.602 179.453 150.01 181.389 151.086
C 183.64 152.337 187.244 150.815 187.987 148.372
C 188.631 146.255 187.719 143.416 185.495 142.61
C 183.2 141.778 180.039 143.145 179.443 145.583 Z
M 212.955 202.581
C 211.579 208.139 219.724 210.605 221.098 204.926
C 222.42 199.465 214.329 197.032 212.955 202.581 Z"
opacity="1" fill="#111827" fill-rule="evenodd" />
<path d="
M 179.945 284.085
C 180.041 283.419 179.951 283.756 180.239 283.082
C 181.336 281.898 182.668 281.646 184.096 281.066
C 185.204 279.574 185.463 276.92 185.857 275.118
C 186.945 270.148 187.824 265.136 188.125 260.049
C 188.27 257.589 187.299 253.517 190.527 252.775
C 191.555 255.494 190.655 257.729 190.417 260.483
C 189.811 267.492 188.381 274.096 186.789 280.926
C 186.31 282.979 188.4 284.283 187.831 286.459
C 187.421 287.52 186.763 288.366 185.808 288.991
C 182.394 290.288 179.886 287.242 179.945 284.085 Z"
opacity="1" fill="#111827" fill-rule="evenodd" />
<path d="
M 187.343 90.013
C 187.89 88.973 188.48 88.025 189.514 87.415
C 191.087 87.192 192.279 87.733 193.532 88.604
C 194.286 88.59 195.235 87.812 195.924 87.496
C 197.849 86.612 199.861 85.777 201.874 85.118
C 208.332 83.004 214.951 81.467 221.743 80.905
C 247.531 78.773 274.276 86.739 290.695 107.713
C 293.432 111.209 295.902 115.154 297.676 119.227
C 298.352 120.777 298.992 122.41 299.485 124.027
C 299.713 124.777 299.671 125.745 300.035 126.415
C 306.923 125.001 308.707 135.932 301.924 137.242
C 299.541 137.702 297.087 136.978 295.846 134.816
C 294.443 132.37 295.222 127.676 298.325 126.788
C 298.401 126.082 297.659 125.244 297.378 124.609
C 296.653 122.974 296.058 121.297 295.285 119.675
C 291.92 112.613 287.376 106.442 281.594 101.143
C 264.791 85.744 240.357 80.385 218.174 83.728
C 210.352 84.906 202.049 86.917 195.012 90.65
C 193.9 92.141 194.116 94.015 192.119 94.93
C 189.089 96.318 186.442 92.736 187.343 90.013 Z
M 297.575 132.126
C 297.979 136.663 304.363 135.983 303.959 131.471
C 303.572 127.152 297.191 127.803 297.575 132.126 Z"
opacity="1" fill="#111827" fill-rule="evenodd" />
<path d="
M 195.791 350.337
C 198.066 350.412 200.347 350.298 202.618 350.375
C 203.108 351.265 202.714 352.983 202.701 353.993
C 202.664 356.828 202.698 359.667 202.704 362.502
C 202.728 373.168 202.773 383.835 202.783 394.501
C 202.786 398 202.812 401.499 202.802 404.997
C 202.8 405.747 202.415 407.918 202.929 408.398
C 210.096 408.076 217.333 408.3 224.507 408.32
C 228.913 408.333 233.592 407.967 237.966 408.407
C 237.784 410.151 237.491 412.902 237.973 414.559
C 237.233 414.938 235.561 414.561 234.719 414.507
C 232.37 414.359 229.99 414.472 227.638 414.476
C 220.595 414.491 213.548 414.557 206.503 414.543
C 203.139 414.537 199.152 413.964 195.859 414.59
C 195.349 412.854 195.778 410.325 195.776 408.501
C 195.769 404.168 195.761 399.835 195.752 395.501
C 195.723 380.47 196.256 365.357 195.791 350.337 Z"
opacity="1" fill="#111827" fill-rule="evenodd" />
<path d="
M 198.398 157.537
C 198.853 156.737 199.482 156.031 199.857 155.194
C 200.603 150.384 201.217 146.283 203.713 141.923
C 208.737 133.148 218.958 128.842 228.757 129.07
C 231.992 129.146 235.276 129.7 238.366 130.658
C 239.775 131.095 241.399 132.301 242.859 132.319
C 244.634 130.867 246.043 129.51 248.553 129.718
C 253.001 130.086 256.425 135.158 254.315 139.289
C 252.102 143.62 245.551 144.703 242.583 140.544
C 241.112 138.483 241.583 136.677 241.833 134.374
C 239.504 132.823 236.225 132.206 233.511 131.747
C 224.801 130.273 214.963 132.448 208.736 139.051
C 206.167 141.775 204.46 145.151 203.164 148.629
C 202.572 150.219 202.405 151.871 202.21 153.54
C 202.151 154.05 201.833 154.894 202.067 155.379
C 202.381 156.032 203.267 156.542 203.746 157.09
C 205.394 158.977 204.201 160.182 203.204 162.02
C 203.232 163.121 204.038 164.324 204.568 165.281
C 205.94 167.759 207.557 169.883 209.181 172.184
C 210.243 172.304 211.302 171.461 212.468 171.582
C 215.268 171.871 217.829 174.356 217.857 177.185
C 217.869 178.313 217.073 179.504 217.218 180.504
C 224.03 186.161 231.182 191.452 238.178 196.885
C 240.865 198.972 244.398 200.809 246.515 203.497
C 249.248 202.792 251.922 202.593 252.732 206.097
C 252.905 206.845 252.383 207.892 252.79 208.536
C 253.081 208.996 254.425 209.265 254.914 209.578
C 256.298 210.463 257.675 211.52 258.921 212.591
C 259.508 213.096 260.248 214.137 260.956 214.4
C 261.326 213.785 261.27 212.834 261.564 212.138
C 262.449 210.044 263.463 208.015 264.288 205.895
C 264.519 205.3 265.643 203.857 265.278 203.311
C 261.949 201.898 258.876 198.731 256.034 196.525
C 249.76 191.656 243.632 186.46 237.847 181.012
C 234.79 178.133 231.939 174.382 228.555 171.934
C 227.722 171.855 226.858 172.057 226.032 171.858
C 223.903 171.345 223.31 168.894 224.113 167.098
C 225.46 165.224 228.54 165.232 229.461 167.582
C 229.835 168.536 229.505 169.598 229.891 170.53
C 236.88 177.151 243.9 183.882 251.371 189.976
C 256.745 194.36 262.424 198.333 267.917 202.554
C 267.901 203.729 267.127 204.931 266.64 205.972
C 265.521 208.366 264.401 210.784 263.393 213.227
C 262.956 214.286 262.445 216.174 261.477 216.835
C 258.826 216.738 255.939 213.062 254.208 211.282
C 253.61 210.666 252.771 209.481 251.934 209.2
C 251.491 209.051 250.697 209.548 250.275 209.656
C 248.919 210.002 247.69 209.992 246.608 209.012
C 245.151 207.693 245.107 206.128 245.767 204.391
C 244.768 203.618 243.254 203.462 242.134 202.655
C 233.036 196.103 223.914 189.037 215.544 181.59
C 212.363 183.534 207.219 182.857 206.758 178.4
C 206.644 177.299 206.787 176.158 207.197 175.128
C 207.45 174.492 207.993 173.837 207.807 173.136
C 204.982 170.497 202.51 166.79 201.385 163.11
C 198.917 162.22 197.435 160.17 198.398 157.537 Z
M 208.52 177.625
C 208.637 181.908 215.41 181.236 215.724 177.486
C 216.117 172.796 208.393 172.984 208.52 177.625 Z
M 243.88 135.052
C 242.264 140.907 250.753 143.632 252.463 137.96
C 254.169 132.304 245.417 129.488 243.88 135.052 Z"
opacity="1" fill="#111827" fill-rule="evenodd" />
<path d="
M 215.832 148.527
C 217.21 145.337 220.969 143.617 223.909 146.095
C 225.084 147.085 225.421 148.416 226.212 149.648
C 230.422 149.405 234.694 150.685 238.462 152.477
C 239.963 153.19 242.233 155.301 243.852 155.372
C 245.277 154.13 246.674 153.228 248.678 153.385
C 252.467 153.681 255.548 158.18 253.865 161.789
C 252.152 165.464 246.709 166.182 244.118 163.077
C 242.584 161.239 242.774 159.437 243.227 157.234
C 239.14 155.169 235.158 152.626 230.508 151.982
C 229.091 151.786 227.327 151.378 225.933 151.741
C 225.198 153.093 224.224 154.753 222.762 155.412
C 218.197 157.47 214.86 152.547 215.832 148.527 Z
M 244.935 158.57
C 244.044 163.058 251.044 164.889 251.859 160.41
C 252.712 155.718 245.901 153.7 244.935 158.57 Z"
opacity="1" fill="#111827" fill-rule="evenodd" />
<path d="
M 227.413 300.54
C 228.763 298.177 228.135 295.116 228.376 292.492
C 228.917 286.593 229.342 280.682 229.89 274.779
C 230.066 272.891 229.714 269.936 230.458 268.212
C 231.07 266.793 233.582 265.297 235.041 265.002
C 236.717 265.693 238.217 266.77 239.876 267.521
C 246.34 270.448 254.058 273.598 261.154 274.336
C 261.527 275.163 259.163 277.876 258.701 278.607
C 256.122 282.683 254.637 287.171 253.55 291.832
C 252.887 294.672 252.466 297.576 252.148 300.474
C 252.031 301.541 251.583 302.959 251.837 304.018
C 251.996 304.686 252.886 305.174 253.307 305.686
C 254.496 307.128 254 308.955 252.524 309.936
C 250.238 310.981 248.204 309.87 247.633 307.481
C 247.661 306.248 248.663 305.524 249.419 304.647
C 250.459 302.088 249.969 298.434 250.378 295.682
C 250.829 292.649 252.042 289.601 252.336 286.587
C 249.124 285.623 246.061 284.125 242.861 283.133
C 241.114 295.668 239.948 308.497 240.759 321.175
C 239.94 321.207 239.108 321.28 238.297 321.138
C 237.382 307.433 239.52 293.777 240.781 280.193
C 243.524 280.136 247.188 282.296 249.768 283.26
C 250.706 283.61 252.249 284.636 253.249 284.254
C 254.032 282.269 254.947 280.182 256.067 278.363
C 256.55 277.578 257.616 276.756 257.869 275.899
C 252.778 274.402 247.724 273.19 242.716 271.297
C 240.175 270.337 237.254 268.267 234.56 268.02
C 231.37 268.864 232.192 272.859 231.947 275.494
C 231.451 280.844 230.995 286.214 230.661 291.575
C 230.498 294.193 229.965 296.949 230.23 299.567
C 230.806 300.545 231.842 300.96 231.592 302.238
C 230.531 303.772 228.304 303.989 227.232 302.419
C 227.094 301.727 227.164 301.196 227.413 300.54 Z"
opacity="1" fill="#111827" fill-rule="evenodd" />
<path d="
M 230.906 214.591
C 231.799 210.466 236.2 208.554 239.636 211.507
C 241.763 213.334 241.868 215.302 241.64 217.886
C 243.129 219.432 245.587 220.436 247.424 221.542
C 250.932 223.654 254.378 225.848 258.035 227.7
C 259.762 228.575 262.308 230.71 264.292 230.679
C 267.132 229.045 268.698 225.462 272.054 224.603
C 270.679 222.069 268.734 217.83 272.571 216.005
C 273.709 215.463 275.017 215.795 276.145 215.349
C 277.644 213.313 278.044 210.283 278.676 207.873
C 278.841 207.244 279.615 205.954 279.156 205.405
C 275.142 204.23 274.453 200.051 275.819 196.571
C 275.384 196.092 274.388 195.847 273.798 195.511
C 272.432 194.731 271.073 193.934 269.796 193.011
C 265.628 189.997 261.712 186.669 257.752 183.4
C 256.253 182.162 254.712 180.979 253.241 179.706
C 252.804 179.329 251.839 178.669 251.806 178.101
C 253.976 175.227 257.053 172.833 259.556 170.225
C 260.531 169.21 261.54 167.566 263.041 167.578
C 265.675 169.429 267.873 171.934 270.375 173.968
C 274.377 177.221 278.772 180.163 283.192 182.814
C 288.227 185.833 293.466 188.574 298.683 191.266
C 301.064 192.495 303.731 193.514 305.939 195.026
C 305.925 209.053 304.209 223.413 296.792 235.658
C 295.775 237.436 294.639 239.036 293.283 240.568
C 293.995 242.016 294.642 243.322 294.367 244.976
C 292.23 249.309 285.246 245.929 287.321 241.41
C 288.435 240.164 289.705 240.02 291.261 239.786
C 293.6 238.142 295.297 233.966 296.521 231.417
C 300.34 223.466 303.02 214.629 303.297 205.781
C 303.366 203.586 303.64 201.421 303.722 199.229
C 303.753 198.405 304.04 197.122 303.725 196.364
C 298.605 194.248 293.849 191.333 289 188.682
C 279.687 183.589 270.351 177.878 262.924 170.191
C 260.089 172.57 257.861 175.846 254.861 178.024
C 255.091 178.641 255.971 179.041 256.472 179.471
C 257.746 180.564 258.993 181.672 260.329 182.69
C 263.918 185.426 267.408 188.298 271.003 191.036
C 272.654 192.293 274.532 194.137 276.476 194.887
C 278.301 194.683 279.407 193.362 281.472 193.691
C 285.397 194.317 287.105 199.674 284.969 202.806
C 283.918 204.345 282.214 204.613 280.867 205.715
C 279.728 209.047 279.863 212.291 278.149 215.529
C 278.675 217.981 280.745 219.511 279.718 222.367
C 278.554 225.606 275.587 224.62 273.2 225.531
C 272.395 225.838 271.583 226.821 270.962 227.4
C 269.019 229.213 267.12 231.766 264.76 233.037
C 262.473 233.286 259.762 231.202 257.865 230.157
C 252.071 226.964 245.494 223.934 240.558 219.459
C 239.405 220.112 238.317 220.993 236.957 221.125
C 233.07 221.506 230.581 218.282 230.906 214.591 Z
M 232.996 215.092
C 232.261 219.758 238.892 220.217 239.567 215.945
C 240.194 211.979 233.633 211.052 232.996 215.092 Z
M 277.381 198.048
C 275.962 202.42 281.807 205.265 283.31 200.671
C 283.741 199.354 283.579 197.528 282.426 196.592
C 280.937 195.384 277.96 196.264 277.381 198.048 Z"
opacity="1" fill="#111827" fill-rule="evenodd" />
<path d="
M 231.402 69.064
C 231.417 68.865 231.431 68.666 231.446 68.468
C 233.004 67.805 234.991 68.189 236.655 68.261
C 240.504 68.43 244.379 68.707 248.159 69.48
C 249.752 69.805 252.623 70.994 254.191 70.566
C 255 70.008 255.702 69.32 256.662 69.008
C 261.443 67.453 263.782 75.648 258.699 76.606
C 258.103 76.719 257.402 76.714 256.808 76.593
C 256.081 76.445 255.439 76.05 254.962 75.484
C 254.329 74.734 253.983 73.693 253.686 72.771
C 249.62 72.277 245.627 71.373 241.543 70.946
C 238.203 70.597 234.9 70.765 231.58 70.593
C 231.432 70.072 231.416 69.607 231.402 69.064 Z"
opacity="1" fill="#111827" fill-rule="evenodd" />
<path d="
M 247.29 248.985
C 247.958 247.739 249.39 246.9 250.802 247.484
C 252.262 248.087 252.567 249.844 253.841 250.65
C 256.592 252.391 260.702 253.169 263.813 254.105
C 274.794 257.411 285.875 258.589 297.308 258.685
C 297.537 256.34 297.749 253.976 297.971 251.622
C 298.066 250.609 297.939 249.473 298.456 248.581
C 301.129 247.84 304.021 248.123 306.749 247.62
C 307.117 247.032 306.694 245.323 306.616 244.61
C 306.371 242.365 305.9 239.778 306.428 237.549
C 307.2 234.294 308.804 231.337 309.991 228.232
C 311.296 224.819 311.983 221.159 312.814 217.612
C 313.314 215.479 314.223 213.102 314.116 210.898
C 312.953 209.397 311.135 208.274 312.314 206.124
C 313.164 205.155 314.057 204.974 315.188 204.518
C 315.538 203.185 314.725 201.117 314.514 199.761
C 314.043 196.735 313.933 193.644 313.379 190.636
C 312.422 189.384 310.458 188.498 309.129 187.654
C 306.063 185.707 302.907 184.02 299.737 182.262
C 299.197 181.422 299.406 180.302 299.501 179.35
C 299.676 177.598 299.528 175.832 299.66 174.082
C 299.707 173.469 299.967 172.41 299.675 171.849
C 296.357 172.074 293.063 172.069 289.739 172.182
C 288.177 172.235 286.166 172.611 284.663 172.071
C 282.218 171.192 279.54 168.415 277.607 166.717
C 273.332 162.961 269.536 158.608 265.953 154.201
C 264.482 152.392 262.405 150.722 261.334 148.634
C 261.729 147.242 263.047 146.024 264.047 145.01
C 266.095 142.933 268.283 140.93 270.252 138.801
C 270.182 137.841 268.247 136.187 267.654 135.366
C 266.085 133.191 264.527 130.956 262.648 129.031
C 261.415 127.769 259.862 126.927 258.733 125.572
C 258.695 124.672 260.01 122.122 261.236 122.905
C 262.008 123.96 262.353 125.336 263.167 126.418
C 265.196 129.115 267.457 131.669 269.527 134.341
C 270.505 135.604 272.532 137.461 272.828 139.029
C 272.584 140.137 271.062 141.175 270.282 141.965
C 268.129 144.146 265.969 146.321 263.854 148.535
C 265.426 150.839 267.649 152.995 269.522 155.073
C 272.658 158.552 275.875 162.032 279.506 165.007
C 281.148 166.353 283.523 169.241 285.529 169.85
C 289.45 170.107 293.555 169.729 297.501 169.714
C 298.42 169.71 300.941 169.243 301.592 169.806
C 301.833 173.347 301.724 177.039 301.625 180.59
C 302.378 181.513 303.768 181.833 304.803 182.39
C 307.976 184.1 313.281 185.998 315.285 189.179
C 315.979 190.28 315.854 192.182 316.013 193.439
C 316.47 197.051 316.248 201.022 316.963 204.547
C 319.022 204.975 320.189 206.843 319.798 208.869
C 318.881 209.905 317.532 210.151 316.563 211.093
C 315.942 212.59 315.91 214.348 315.634 215.934
C 315.116 218.908 314.371 221.913 313.517 224.809
C 312.01 229.923 308.543 234.835 308.61 240.233
C 308.687 246.402 310.626 252.106 310.733 258.257
C 310.774 260.574 310.899 263.118 310.024 265.319
C 308.214 269.873 303.162 270.452 298.998 270.934
C 297.665 271.088 296.268 271.825 294.932 271.591
C 294.155 270.624 294.163 269.37 294.189 268.19
C 297.605 267.599 300.874 268.782 304.275 267.459
C 308.855 265.677 308.465 260.537 308.405 256.494
C 308.379 254.68 308.448 252.38 307.514 250.764
C 306.511 249.754 302.286 250.499 301.052 251.047
C 299.575 253.972 300.079 257.687 299.306 260.838
C 296.699 261.703 292.551 260.754 289.793 260.7
C 279.38 260.498 268.747 258.514 258.967 254.955
C 257.049 254.257 255.065 253.235 253.084 252.769
C 250.753 252.22 247.647 254.497 247.155 250.526
C 247.09 249.999 247.165 249.493 247.29 248.985 Z"
opacity="1" fill="#111827" fill-rule="evenodd" />
<path d="
M 249.998 414.091
C 252.109 407.34 255.653 400.765 258.446 394.262
C 264.804 379.457 271.668 364.877 278.331 350.212
C 280.613 350.317 283.117 350.424 285.368 349.985
C 286.358 350.903 286.711 353.084 287.31 354.323
C 289.245 358.325 290.929 362.449 292.822 366.47
C 297.885 377.221 302.802 388.043 307.746 398.846
C 310.133 404.061 311.871 409.816 314.746 414.757
C 312.311 414.245 309.581 414.982 307.125 414.879
C 305.117 409.437 302.325 404.27 300.592 398.729
C 288.429 399.435 276.117 398.42 263.934 398.739
C 262.846 399.98 262.308 401.841 261.683 403.357
C 260.204 406.949 258.869 411.421 256.828 414.683
C 254.928 414.724 251.437 415.332 249.706 414.619
C 249.803 414.443 249.901 414.267 249.998 414.091 Z
M 266.489 391.581
C 266.144 392.214 266.235 391.899 266.16 392.511
C 276.56 393.121 287.114 392.307 297.522 392.346
C 297.492 391.553 296.723 390.687 296.356 389.979
C 295.333 388.006 294.353 385.996 293.456 383.962
C 290.766 377.86 288.07 371.754 285.274 365.698
C 284.384 363.771 283.529 361.825 282.622 359.907
C 282.305 359.235 282.222 358.501 281.683 357.963
C 280.046 362.027 277.918 365.927 276.155 369.945
C 272.985 377.17 269.893 384.464 266.489 391.581 Z"
opacity="1" fill="#111827" fill-rule="evenodd" />
<path d="
M 268.477 75.388
C 268.585 75.307 268.694 75.226 268.802 75.144
C 270.747 75.556 272.452 76.968 274.155 77.955
C 277.594 79.948 281.07 81.886 284.26 84.267
C 288.948 87.766 293.528 91.275 297.399 95.708
C 309.305 109.345 315.539 126.299 315.755 144.323
C 314.947 144.517 314.025 144.342 313.235 144.139
C 312.769 141.991 313.176 139.592 313.146 137.399
C 313.105 134.347 312.599 131.256 311.801 128.31
C 307.05 110.788 297.387 96.806 282.855 85.988
C 278.558 82.789 273.362 79.064 268.123 77.652
C 268.068 76.841 268.209 76.152 268.477 75.388 Z"
opacity="1" fill="#111827" fill-rule="evenodd" />
<path d="
M 293.847 149.882
C 298.066 149.819 302.284 149.708 306.509 149.755
C 308.155 149.773 310.534 149.556 311.762 150.854
C 312.971 152.625 312.336 155.927 312.336 157.985
C 312.336 161.652 312.402 165.318 312.4 168.986
C 312.398 170.895 312.077 173.049 312.461 174.918
C 314.793 177.252 317.764 178.828 320.036 181.279
C 324.194 185.766 326.615 191.391 329.156 196.858
C 330.364 199.456 334.521 200.491 332.26 203.954
C 331.967 204.403 331.653 204.768 331.239 205.108
C 329.433 205.661 326.694 204.725 325.877 202.973
C 325.721 201.447 326.534 200.562 327.371 199.409
C 327.636 197.614 325.334 194.364 324.525 192.757
C 322.961 189.657 321.31 186.491 318.989 183.879
C 316.452 181.025 313.283 178.907 310.399 176.484
C 309.506 174.815 310.175 171.406 310.17 169.497
C 310.154 163.813 309.786 157.957 310.146 152.293
C 308.614 151.801 306.617 152.134 305.01 152.13
C 301.312 152.121 297.615 152.151 293.918 152.084
C 293.489 151.438 293.734 150.608 293.847 149.882 Z"
opacity="1" fill="#111827" fill-rule="evenodd" />
<path d="
M 332.93 350.277
C 340.444 349.483 348.437 350.243 356.003 350.223
C 361.247 350.209 367.016 349.602 372.009 351.581
C 380.698 355.027 385.012 365.008 380.992 373.655
C 380.207 375.343 379.158 376.992 377.705 378.182
C 376.434 379.224 374.797 379.868 373.741 381.133
C 376.527 382.106 379.518 383.245 381.566 385.506
C 388.64 393.313 386.79 406.851 377.327 411.794
C 371.255 414.966 364.649 414.739 358.004 414.71
C 349.769 414.674 341.521 414.489 333.288 414.606
C 332.606 413.952 333.046 411.482 333.049 410.493
C 333.062 406.499 333.084 402.505 333.08 398.51
C 333.061 382.477 333.582 366.293 332.93 350.277 Z
M 340.001 357.627
C 339.371 364.517 340.433 371.61 340.09 378.537
C 341.28 378.863 342.778 378.586 344.007 378.585
C 346.948 378.584 349.889 378.605 352.829 378.628
C 358.83 378.674 365.667 379.286 370.987 375.918
C 376.551 372.395 376.834 363.472 372.036 359.246
C 368.895 356.481 364.74 356.264 360.758 356.235
C 356.674 356.206 352.589 356.285 348.505 356.291
C 345.967 356.295 342.489 355.727 340.088 356.564
C 340.074 357.376 340.12 357.024 340.001 357.627 Z
M 340.305 384.395
C 339.864 387.35 340.138 390.515 340.13 393.501
C 340.117 398.383 340.019 403.277 340.129 408.158
C 340.817 408.58 341.808 408.362 342.602 408.347
C 344.569 408.312 346.539 408.323 348.507 408.331
C 353.308 408.349 358.118 408.512 362.919 408.402
C 366.676 408.316 370.596 408.047 373.892 406.052
C 380.116 402.287 380.507 393.121 375.309 388.271
C 371.565 384.778 366.389 384.399 361.533 384.291
C 354.498 384.133 347.329 383.97 340.305 384.395 Z"
opacity="1" fill="#111827" fill-rule="evenodd" />
<path d="
M 402.208 405.609
C 403.489 403.756 404.806 401.873 405.769 399.829
C 408.204 401.589 410.445 403.548 413.09 405.024
C 419.254 408.466 426.577 410.183 433.609 409.252
C 441.566 408.198 448.272 400.376 442.901 392.672
C 440.608 389.384 436.915 388.028 433.259 386.819
C 423.474 383.583 409.211 382.692 406.25 370.756
C 404.11 362.133 409.326 353.75 417.43 350.838
C 425.675 347.875 435.836 348.896 443.66 352.723
C 445.773 353.756 448.381 354.974 450.054 356.654
C 449.552 358.433 448.609 361.069 447.46 362.547
C 439.967 358.135 432.554 354.332 423.483 355.693
C 417.796 356.546 412.797 360.296 413.124 366.515
C 413.503 373.727 419.888 375.734 425.811 377.518
C 435.693 380.495 449.829 382.669 451.624 395.066
C 451.944 397.279 451.899 399.645 451.365 401.82
C 447.179 418.874 425.171 417.668 412.457 412.088
C 409.605 410.836 406.99 409.276 404.518 407.382
C 403.829 406.854 402.71 406.259 402.208 405.609 Z"
opacity="1" fill="#111827" fill-rule="evenodd" />
</svg>
